<mxfile host="app.diagrams.net" modified="2022-04-20T15:13:20.898Z" agent="5.0 (Windows NT 10.0; Win64; x64) AppleWebKit/537.36 (KHTML, like Gecko) Chrome/100.0.4896.75 Safari/537.36 Edg/100.0.1185.36" etag="Y9hw4hpk-1CWbicBnPU5" version="17.4.6" type="github">
  <diagram id="C5RBs43oDa-KdzZeNtuy" name="Page-1">
    <mxGraphModel dx="1848" dy="1727" grid="1" gridSize="10" guides="1" tooltips="1" connect="1" arrows="1" fold="1" page="1" pageScale="1" pageWidth="827" pageHeight="1169" math="0" shadow="0">
      <root>
        <mxCell id="WIyWlLk6GJQsqaUBKTNV-0" />
        <mxCell id="WIyWlLk6GJQsqaUBKTNV-1" parent="WIyWlLk6GJQsqaUBKTNV-0" />
        <mxCell id="BXsJe9mMuq3Z97-YSvnt-2" value="" style="whiteSpace=wrap;html=1;aspect=fixed;fontSize=9;" vertex="1" parent="WIyWlLk6GJQsqaUBKTNV-1">
          <mxGeometry x="210" y="-80" width="190" height="190" as="geometry" />
        </mxCell>
        <mxCell id="BXsJe9mMuq3Z97-YSvnt-4" value="" style="shape=image;verticalLabelPosition=bottom;labelBackgroundColor=default;verticalAlign=top;aspect=fixed;imageAspect=0;image=data:image/png,iVBORw0KGgoAAAANSUhEUgAAACcAAAAhCAYAAABa+rIoAAAAAXNSR0IArs4c6QAAAARnQU1BAACxjwv8YQUAAAAJcEhZcwAADsMAAA7DAcdvqGQAAAOESURBVFhH7ZZZSJRRFMf/OjM644KiFGXLlObYixSJWmaWjktCgdVjuVARlUQ+VViBVLQSVKI9CK0WyVBgNRPl8iBlTVAIY7mAqUk+iIb7gLPc7r1zp6wZJ+eLyof5weWbe87H4X/POfd840comKP4i+ecxCdOKj5xUvGJk4pPnFT+yhdicnISExMT8PPzg0qlQlBQEP89HbvdDn9/z7n5I3EWiwX3q6vxzGDA18EhDI+OYowuZmew0E5RKqUKqiAVlFSs3WbD4NAQDhQfxOGSEu53hyRx7NSPHj5CxbVrkCsU2Jm/C4uXLEF4eDhfYWFhCA4OxtTUFE6UluJzdy8uXL5EM2qG2TyJvr4+nCw9jtTUVNyqviuiuoGJmy02m43o9XqSk5lJ1q9dR+7fu0esVqvwumdkZISkJCUTg94gLIRUVVWRGPUyEr1UTa5euSKsrnjMXFdXF1paWvCx9QPa29r4Yuyn5SgoLERgYCDf/47dRUVQq5chI1OLD6ZWXK+o4D3JYGUvr6zA5txcvp/OjOJOlZXhzq3bUMgVsFgdPcRITErCrsIC0Czy8rL+4U+6mM1ms9NqOH/b+AF1D2p4/7lDLpdDqVSiVv+UHkAtrA7cihsYGMCxI0dx7sJ5XDx7DrW1tcIze9K1GfQ2ytBQVycsrrCb/KKxAU1NTWg1mXD6zBnhceD2LutqahAdE43K8nI8efxYWL2Dlc1Zupkwm83Yt2cvQkNC0P6xXVh/4JK5np4e5GZnwzL1o5T/Ao1GA8OL52LnwCVzr5ubfxLGGjaf9tiGtDTEx8fP2DuzwZ/G2rZjO421AUnJyZgeqZsmhY2Y6biI+7UUeXl5qK+rh0wmQ9TiRVi4KEp4vCcjKwvv372nt1zJ56MmNlZ46ECnM7G3t1fsHMjF8zub0tP5DSN2wpt0bGKc36bltAc7Ozq5PSsnhw9ab+js6MD4+Djk9JCxcRq8fWOkU8CKjembMG/efCxYuAApKSnibQce59yrly9x6GAxtmzdik/dn+jYsKO//wvqGhuhoCf3BnbQovwCaLVaGqMfAQEBaKNz83lDPUJDQ8Vbv8DEeeLmjZskYdVqEhezguRmZROTySQ83qPT6UjimgSyksbKSNtIjEaj8LjHY+ac0E8URukHPSIiQlikwwbz8PAwIiMjhWVmZiXufzGn/2z6xEnFJ04qPnHSAL4BxjRqoefnzGUAAAAASUVORK5CYII=;" vertex="1" parent="WIyWlLk6GJQsqaUBKTNV-1">
          <mxGeometry x="220" y="-60" width="30" height="25.39" as="geometry" />
        </mxCell>
        <mxCell id="BXsJe9mMuq3Z97-YSvnt-5" value="" style="shape=image;verticalLabelPosition=bottom;labelBackgroundColor=default;verticalAlign=top;aspect=fixed;imageAspect=0;image=data:image/png,iVBORw0KGgoAAAANSUhEUgAAAEEAAAA3CAYAAABTjCeZAAAAAXNSR0IArs4c6QAAAARnQU1BAACxjwv8YQUAAAAJcEhZcwAADsMAAA7DAcdvqGQAAAN8SURBVGhD7Zq7Lz1BFMe/9xIUGgqJRoRGUBASjwIR4hEJkShEQSXx6FBoVGoiKGg8IvEPSOSSCB0JDYXbIBQq8UgIEcxvzub8Xn787s7enXExn2Sze86c2cl+d/bszOwGhATfnCDvvzVWBIkVQaKcEzo6OnB+fo5AIMCe2IUuraCgAOPj4+x5G2URMjMzcXp6iqamJvbELisrK6ioqMDW1hZ73oFEUCErK0v09fWxFds0NzeLyspKtt7H5gSJFUFiRZB8uAiHh4dYWlrC5OSksw+Hw1xiEM4NrvErMa6trYmioiIhX7X0dvq1kU3+UCjEkd6J6cQ4MjKCuro67O3tOe/yPyGb/PX19U6cCYyLMDExgdHR0X8u/jVUTnEUrxujItAga3h4OKIAP6E4ij87O2OPHoyKMD09jfv7e7bcQfFUTydGRVhdXeUjNbzWc4sxEahrHx8fs6XG0dGR60fIC0ZFeHl5YUsNr/XcYkyEYDCIjIwMttSgejqn7kZzQk1NDR+pUVtby0d6MCqCHGkiPj6eLXdQfG9vL1t6MCpCbm4uBgcH2XIHxVM9nRgVgaBRYGdnZ8RnnMopjuJ1Y1yEuLg4zM/PY3Z2Funp6ez9G/JTOcVRvG6U1xizs7PR0NCAqakp9njn8fERGxsb2N3dxdXVFVJSUlBcXIzq6mokJCRwlHdaWlpwfX2Nzc1N9rwDiaDCV1xj/JCeQE3S6PHg4MDZX1xc4OHhAYmJiUhNTXVWtPPy8pCTk+OML7wScz3h5uZGLC4uira2NpGWlkbCR9zk4yFaW1vF3NycuLy85DO5x21P0C5COBwW3d3dIjk5+c0LdbslJSWJ9vZ2sb29zWeOzIevLNFXqq6uLuTn5zuZ/vb2lku8QY/L8vIyysrK0NjY6OtapBYRZmZmnAHOwsICnp6e2OsP8sY5U+vCwsKIn9fc4rsIQ0ND6OnpgcwB7NED9YyBgQGnvWjxVYT9/X2MjY05d8sE1A61R2+ZaPBVhPX1de1z/9dQe6FQiC1v+CpCtMnPK3d3d3zkDS2J8bNhRZBYESRWBIkVQWJFkPg6ld7Z2YGc4LBljtLSUpSUlLD1G7uoIrE/bilgRZBYESSe/2jt7+9nT+xCydvNH63KIlRVVeHk5MTI94BoeX5+Rnl5ubMi9T+URfiK2JwgsSJIrAgSK4LEigDgBxiOp/Fcadq3AAAAAElFTkSuQmCC;" vertex="1" parent="WIyWlLk6GJQsqaUBKTNV-1">
          <mxGeometry x="340" y="-68.46000000000001" width="50" height="42.31" as="geometry" />
        </mxCell>
        <mxCell id="BXsJe9mMuq3Z97-YSvnt-10" value="" style="shape=image;verticalLabelPosition=bottom;labelBackgroundColor=default;verticalAlign=top;aspect=fixed;imageAspect=0;image=data:image/png,iVBORw0KGgoAAAANSUhEUgAAAJ4AAAA6CAYAAABBCOCDAAAAAXNSR0IArs4c6QAAAARnQU1BAACxjwv8YQUAAAAJcEhZcwAADsMAAA7DAcdvqGQAAAIjSURBVHhe7d29amJxEMbh2a20MAi5A60sBAXBLo2FhaiNta0i4jUkQixFxRvw+xLsFayt/LiKRBvtdleZIvDnuJwTyDS/BwZ5+xedORzw159/BPhhv/UT+FEUDyYoHkw4O95sNpPpdKoJ8KfRaEixWNTkzSneZDK5DxBEs9mUUqmkyRtXLUyw48EExYMJigcTzo7X6XTk/f1dE+BPt9uVWq2myZtTvNVqJev1WhPgTz6fl0wmo8kbVy1MsOPBBMWDCYoHExQPJigeTDhX7W63k/1+rwnwJ5VKSTwe1/TArXhfvb6+3orIMIFmOBxqkx5zvvFOp5Ocz2dNgD/RaFQikYgmbzxAhgmOC5igeDDh/NQul8v7AEFUKhV5eXnR5M0pXr/fl16vpwnw5+3tTarVqiZvHBcwwY4HExQPJigeTFA8mHCOi4+PD/n8/NQE+PP8/CxPT0+aHrgV7yteEmC+M4FfEjgcDnI8HjUB/iSTSYnFYpq88RwPJjguYILiwYTzU7vdbu8DBJHNZiWRSGh64Fa8r7hqme9M4Kv2crnI9XrVBPgTDoclFApp8sZVCxMcFzBB8WCC4sEExYMJigcTzlU7Ho9lNBppAvxptVpSLpc1eXOKt1gsZD6fawL8qdfrUigUNHnjOR5MsOPBBMWDCYoHE86O12637wMEMRgM7v9Z+z9O8TabzX2AIHK5nKTTaU3euGphgh0PJigeTFA8GBD5C3ZVGoT5KIt9AAAAAElFTkSuQmCC;" vertex="1" parent="WIyWlLk6GJQsqaUBKTNV-1">
          <mxGeometry x="260" y="-9" width="103.52" height="38" as="geometry" />
        </mxCell>
        <mxCell id="BXsJe9mMuq3Z97-YSvnt-11" value="" style="ellipse;whiteSpace=wrap;html=1;aspect=fixed;fontSize=12;" vertex="1" parent="WIyWlLk6GJQsqaUBKTNV-1">
          <mxGeometry x="240" y="5" width="10" height="10" as="geometry" />
        </mxCell>
        <mxCell id="BXsJe9mMuq3Z97-YSvnt-26" value="" style="edgeStyle=orthogonalEdgeStyle;rounded=0;orthogonalLoop=1;jettySize=auto;html=1;fontSize=12;fontColor=#000000;endArrow=classic;endFill=1;" edge="1" parent="WIyWlLk6GJQsqaUBKTNV-1" source="BXsJe9mMuq3Z97-YSvnt-14">
          <mxGeometry relative="1" as="geometry">
            <mxPoint x="530" y="60" as="targetPoint" />
            <Array as="points">
              <mxPoint x="530" y="60" />
            </Array>
          </mxGeometry>
        </mxCell>
        <mxCell id="BXsJe9mMuq3Z97-YSvnt-14" value="&lt;span style=&quot;&quot;&gt;Editar veículo&lt;/span&gt;" style="text;html=1;strokeColor=none;fillColor=#000000;align=center;verticalAlign=middle;whiteSpace=wrap;rounded=0;labelBackgroundColor=none;labelBorderColor=none;fontSize=12;fontColor=#FFFFFF;strokeWidth=0;" vertex="1" parent="WIyWlLk6GJQsqaUBKTNV-1">
          <mxGeometry x="240.28" y="50" width="123.24" height="20" as="geometry" />
        </mxCell>
        <mxCell id="BXsJe9mMuq3Z97-YSvnt-72" value="" style="edgeStyle=orthogonalEdgeStyle;rounded=0;orthogonalLoop=1;jettySize=auto;html=1;fontSize=12;fontColor=#000000;endArrow=classic;endFill=1;entryX=0.456;entryY=-0.021;entryDx=0;entryDy=0;entryPerimeter=0;" edge="1" parent="WIyWlLk6GJQsqaUBKTNV-1" source="BXsJe9mMuq3Z97-YSvnt-16" target="BXsJe9mMuq3Z97-YSvnt-51">
          <mxGeometry relative="1" as="geometry">
            <mxPoint x="301.9000000000001" y="180" as="targetPoint" />
            <Array as="points">
              <mxPoint x="297" y="170" />
              <mxPoint x="297" y="170" />
            </Array>
          </mxGeometry>
        </mxCell>
        <mxCell id="BXsJe9mMuq3Z97-YSvnt-16" value="Excluir veículo" style="text;html=1;strokeColor=none;fillColor=#000000;align=center;verticalAlign=middle;whiteSpace=wrap;rounded=0;labelBackgroundColor=none;labelBorderColor=none;fontSize=12;fontColor=#FFFFFF;strokeWidth=0;" vertex="1" parent="WIyWlLk6GJQsqaUBKTNV-1">
          <mxGeometry x="240.28" y="80" width="123.24" height="20" as="geometry" />
        </mxCell>
        <mxCell id="BXsJe9mMuq3Z97-YSvnt-21" value="" style="edgeStyle=orthogonalEdgeStyle;rounded=0;orthogonalLoop=1;jettySize=auto;html=1;fontSize=12;fontColor=#000000;endArrow=none;endFill=0;" edge="1" parent="WIyWlLk6GJQsqaUBKTNV-1" source="BXsJe9mMuq3Z97-YSvnt-17">
          <mxGeometry relative="1" as="geometry">
            <mxPoint x="240" y="10" as="targetPoint" />
          </mxGeometry>
        </mxCell>
        <mxCell id="BXsJe9mMuq3Z97-YSvnt-17" value="Lista de veículos gerenciados" style="text;html=1;strokeColor=none;fillColor=none;align=center;verticalAlign=middle;whiteSpace=wrap;rounded=0;labelBackgroundColor=none;labelBorderColor=none;fontSize=12;fontColor=#000000;" vertex="1" parent="WIyWlLk6GJQsqaUBKTNV-1">
          <mxGeometry x="-10" y="-5" width="180" height="30" as="geometry" />
        </mxCell>
        <mxCell id="BXsJe9mMuq3Z97-YSvnt-24" value="" style="whiteSpace=wrap;html=1;aspect=fixed;fontSize=9;" vertex="1" parent="WIyWlLk6GJQsqaUBKTNV-1">
          <mxGeometry x="530" y="-80" width="190" height="190" as="geometry" />
        </mxCell>
        <mxCell id="BXsJe9mMuq3Z97-YSvnt-27" value="" style="shape=image;verticalLabelPosition=bottom;labelBackgroundColor=default;verticalAlign=top;aspect=fixed;imageAspect=0;image=data:image/png,iVBORw0KGgoAAAANSUhEUgAAAQIAAAB6CAYAAABUSV1IAAAAAXNSR0IArs4c6QAAAARnQU1BAACxjwv8YQUAAAAJcEhZcwAADsMAAA7DAcdvqGQAABG3SURBVHhe7d0LXFTVvgfwH0+VKKK0VAwOiuiRTlEhI/ggwUdeUxEh+mSdul6t9Jrmo7Ju4SOq00vLslsYZGpaPkIQFPuUml4RFBQU9WRoKTEwoJCBCMgwd6/NBgaUmcEHboffN9dn9tqPEf9t/rPWnrXXtjFIQETtmq3ySkTtGBMBEYFdAysTFRWFvLw8pUamLF++HPb29kqtfWMisDK+vr7Izs5WamRKVVUVHB0dlVr7xq4BEbFFYG2MWwQbN26Eq6urvEx1goODlSW2CIwxEVjg/In/w86jpaiVlm1sbGF/Sxf09n0QvVyl/mWtDtnbT+DWwED0dKrb/0YyTgQlJSVMBM307t0bubm58jITQSN2DczSI2/dXIRPXYQvli9HTMznWLrovzDIW4M5W4uB6nQseeY1xOv0yv5ENx8mAgt11MzCusREJCZuxpYdmfhhui2Wv/eNsrWpmvIi5GvPokI0IYzpK3C2oAhlNUq9Xk05ivK1OHvJAURtg4ngijjCzb0b7MrLlLqiIgvLIh+ET8AYRIzVoJdnCKL3lEsb9Di9aRaC+vTDkDHDcJ/3YMzbqpO6GhXIWhaJB30CMCZiLDS9PBESvQfiCKK2xERgIb12PzasXYu1a9dgxdJX8FR0Kv4+fqyytU5F2jpstJmC5IPpSM3IwfoJWsStTkNVWRKiZu6EX9xBHM7IQubS/shYtw355WlYt9EGU5IPIj01AznrJ0AbtxppVcobErURJgIL1WgzkCx1DTZv3oKdR/QY/OY2bJ53v7K1jlNwNOIXeiM95j3Mnz0Nb6foUFlViaqje3HAORhhA1ylgNvijkcX48ev/ol7pHXR8QvhnR6D9+bPxrS3U6CrrEIlL99SG2MisFAHv6n4SmoRrFmzGiu++ADznngIdzaJXi2K4qeg/8gF2FFgCzdNJCaP8pQCLP1W20h/9Hr5WwdZxXHsSslGYWE8pvQfiQU7CmDrpkHk5FHwlN6TeYDaGhPBNVODYzt2oyrkZSx5cy6eHemKnH0nUF2jh2O/IGgubsPKFC30qELuqrl4MnordEd3YHdVCF5e8ibmPjsSrjn7cKK6RtqHqG0xEVwzjtBMmoH+aVPh088PAaHvoszXHw75eSh2Gom3Yp/C2TcC4OHeB6NXdsH8z2bg/sBJmNE/DVN9+sEvIBTvlvnC3yEfecX89oDaFgcUWRkOKDKNA4ouj4nAyhgngsTERCaCZgYPHqwsMREYYyKwMrz70HJMBI14jYCI2CKwNq+++ipOnz6t1MiUr7/+mhOTKJgIiIhdAyJiIiAiCRMBETEREBETARFJmAiIiImAiJgIiEjCREBETARExERARBImAiJiIiAiJgIikjAREBETARExERCR5PomgrLj2J2chO1HShqf8iMrx/HdyUhOOwU+5s9SZXLMkrYfQUmzxx6UH9+N5OQ0nGpNMM+fwJ7th2DyEQq1OmT/mIqTFUq9nastPoQft6TjVLWywpqIqcqul4tZUYYHHGwMHQa9b/i1Rlkp0RfGGca42BgcQz41aPXKSjLtYpYh6gEHg02HQYb3mwbTEDfGxWDjGGL4tBXBrPn3O4ZAj8mGLZXKisu5kGB42i3I8MFJo7+v3bpoyHj9AYOLcw9D5Nozyjrrcd27Brad+6LX6SRs+q3+QV61KEpKwO93ecBBWVOnBuVF+dCerTB6RmAx8nTlqK38EyXnGx8Epq84i4KiMukIY5c53trYdkbfXqeRtOm3hsei1RYlIeH3u+DRNJhA9Z/QFZU3i5G0f5W0vvj8ZR+rpj9ffJm4NtPC+1q9qlSs3miLZ2b6Yc9X3+FUw0lWibN5OqmNW4vKkkIUlV0ameo/dSgqV3fErv81Akd/hA7TNp68UnMzMUGL4HH3on7+2IqsZYh80AcBYyIwVtMLniHR2FMuhXjnqxg0dBiG9h+IIeEf4HDVaWyaFYQ+/YZgzLD74D14Hrbqals83vo4wj90GLRJm1CXV2uhS0yANngc7q0PZvVxfDt9ELy8B2FUsA+8NM9jba44CatxLO4p+Ho9iBEjNAicmoCC+pO5Ng8Jc4bA22coxgz3hbdmKr492ezEbfF924fzP61EgtNoKRE8gcFHvsbKo8q/vepnvBY0Gk9EDoRmxGgM7O2J4e/uh+hNVR//FtMHecF70CgE+3hB8/xaqDVkbXCx0BGasBAUKCdvbUECEouHI9ynIQ0gbd1G2ExJxsH0VGTkrMcEbRxWp9V1ePUlHpi68whytr6Cv6VEYeZOP8QdPIyMrEws7Z+BddtykWrieGvjqAlDSIHSwqotQEJiMYaH+yhJtRbaVXMwa/9QrM7OwYGcQ/jukWzMmRmHvMK1+J83fsNjm3OQfTATq8Y645ySCErjX8XM3UFYczgHGdmHkRD2b7zy0loUNXzqtfy++Vbb/DJWiuTV29A94gn8o8t/YOIjOnwTu7fx+lbN76gZugaZGZnIWhuK08tXIO2CFqvmzML+oauRnXMAOYe+wyPZczAzLl85SF3a5FsDx4HhyslbjfyERJSOiMA/GqaTd0JwdDwWeqcj5r35mD3tbaToKlFVWTfLut3f7sP9t4ulahzdewDOwWEY4Cr92LZ34NHFP+Krf3pjmInjrY7jQISHFMgtrOp8KamWjkBEQzCrcTA1C/eMjoSfi6i7wG9iKDyz9iA9cy+yug3D2HudpPUd0CcyFA/J3YlqHN6djpKCZLz0aBCCgkbhv9f/hj+l/Q9fFNuFlt83wxovnDVTW7gJ32yzxW1nE7D4/c9wyNAZ2nVfYus5ZQf73hgY5C4n4049e6L7hTL8VXUQqVn3YHSknxQtiYsfJoZ6ImtPhqipTpskAnSSTt7hOiR9n4b4zWUYEX5v4/WB2iLET+mPkQt2oMDWDZrIyRjlKf1Y9b/H9vYN+9pI/+n1jR9BFcd3IeXgEWw0dbzV6YSB4cOhS/oeafGbUTYiHPc2BNMGdrZ2UoyM2p81F1Fjaw87O6noL0q/0pdjiy7DX8b/xsQgRirLv9mG/dvnY0AHZbOp91Wq1qsWp9d/g9R7BuA+x79w7tw5nO8aiEDHJMRtLJC2SmzsYd9wkoqzVLzawdZOj6Yhq4GtvToj1jaJAB3lk7dw1SysOP8Iwvs1NAek6BzDjt1VCHl5Cd6c+yxGuuZg34lq1FxyNcsR/YI0uLhtJVK00saqXKya+ySikzMtPN56dJRaWMMLV2HWivN4JLxfw7UWSCnzoZAB0G34DMl50hmoL8C2ZeuR7/8wAjQjMKg0HjFbtNDjHDJjv8N++RPfEfcHD0TNzwk4YOeBPn26onTNsxj10hb82ZBzW35fP2t/dKD+F6xZcwgBMz7G29HRiBblrcX44D97YtdXq5Hb0nnm8BBCBuiw4bNk1IVsG5atz4f/w37KDurSRolAaowGTMDIC8fQYdQE9DVOio4aTJrRH2lTfdDPLwCh75bB198B+XnFyg6NnEe+hdinzuKNAA+49xmNlV3m47PZj2GyhcdbjQ4BmDDyAo51GIUJTYIpfbI/tgRfhhfi9UB39PAIwGsFYYj9ZCK6uj6Kf30ZCe08f7j38MVz6Q7ophzq8ui/8PXkaiwO7okePXzw5Pa+mB/9BNwazg4T79tmZ9CNUXNwNb47ORiPjetq9Mtij78/OREPHFqJFQca+k9N2XbBY0u+RHjh6wh07wGPgNdQEBaLTyZ2VXZQFz7yjIjarkVAROrFREBETARE1IprBFVVVcjNzUVFRfu9A6VTp07w8vJCx44dlTVXj3G9PnGl1rEoEezbtw/PP/88jh8/josXW7hK2g7Y29ujd+/e+OKLL6DRaJS1V45xrXOt40qtZzYRaLVaBAYG4tSpU8oacnd3x969e9G9e3dlTesxrpe6mrgOGTIEf/31l1Kjltx555346aeflJoRkQhM+fzzz0WiYGlWRFyuBuN6+XKlcXV1db3s+7E0LXfffbcSsabMtggWLFiAhQsXysvOzs7YtGkTnJzEePWbR2xsrFyEzp07Y8WKFbjjjjvkuqXKy8sRFhYmvwoiJlFRUfLylWBc61yruIq/t7S0VKlRS6REgMLCQqXWyGwimD9/PhYtWiQvu7i4IC8vD7feeqtcv1kY/9J169YNBw4cQNeurRvhJcaYe3h4yK+CeE8RmyvFuNa5VnE1TgQlJSXyKzWqT9AtJQJ+fUhWRbSupG4CS7Pi6Gj6phAmAiJiIiAiJoImRB93586dSo2uFcZV/ZgIFEeOHEFoaCgiIiKwY8cOZS1dLcb15sBEIPnll18wfvx4+cr9mTNn8Pjjj2P//v3KVrpSjOvNo90ngvz8fEycOBHFxcW4/fbb5VJdXY2nn34aR48eVfai1mJcby7tPhGIIZfJyck4duxYk7J9+3b5+226MozrzaXdJwJxx5sYZCEGwjQvt9xyi7IXtRbjenPhNQIi4hBjS3GI8aXUOsT4k08+kV+p0QsvvCC/XpN7DW677Tbs2rXrpmvaiRNj6dKl8vJdd92FhIQE+SaZ1hA3xQQFBTXc6notEwHjevVx5U1HlmkpEZi9DVn6ny3fvsjStCxbtkyJ0JVhXC9frjSurrwN2aIiJQIlYk2ZbRGcPHlSnkBDp9Mpa0g0f1NTU+Hp6amsaT3G9VJXE9dPP/0UlZWVSo1aIm51nzZtmlIzIqcDM1JSUgxSH/CS7NIei5ubm+GHH35QInN1GNfGci3jSq1ntkVQT0yymZWV1a6ngxJ9eV9fX3To0PBQwKvGuF6fuFLrWJwIiMh6cRwBEVnWIsjJycGvv/6q1C4l5qUfOHDgTfc9+I3GuJJamE0E4j7ycePGoaysTFxYVNY2ZWtrK++zYcMGeZnMY1xJTcyeXT///LN8IctUvqitrZXno+ekkZZjXElNzCYCcTLWs7GxkSdBrC92do3P5hcntPG+er1evu1UDUX8LGrDuJKamO0aNB8Km56e3jAUdsmSJXIRxNDFQ4cOyUNNhY8++giLFy+Wl2+02bNn48UXX1Rq6sC4kqqIRGBKVFSUSBRycXFxMUjNWWWLwSCdzA3bxNBFnU6nbDEYFixY0LDtRhfxs6gN40pqwitQRNS6roGYbEI0BUU/VhAXvEQRmjdhjbfdaA8//LD8kEw1YVxJVeR2gQnGTVhTpXkTlkxjXElNzHYNxKQZlhDjxMUnG1mGcSU1Mds1ELfJTpkyBdnZ2cqaS4kRcPPmzcMzzzyjrCFzGFdSE4uGGAs1NTUtDn4R33tz5NuVYVxJDSxOBERkvfhxQ0TmWwRi+qcPP/wQmZmZLTZhxYi4GTNmwN/fX1lD5jCupCZmE0FMTAyee+45pdYyb29veaYdcYGLzGNcSU3Mdg20Wq2yZJq4k05MTU2WYVxJTcy2CIxHwDk4OMgjyezt7eV6bm4uTpw4IS83HwEn1tdvu9G8vLzQs2dPpaYOjCupikgEpvDmmOuDcSU14bcGRMSvD4moldcIxEg3d3f3htFu4llz9dNoNe/Lim1qeRadq6urXNSEcSVVkTsIJhj3V02Vrl27GoqKipSjyBzGldTEbNegT58+8px65nTv3t3iO+qIcSV1Mds1EBNUium0TY2Ac3Z2lu+QE8+5J8swrqQmZhMBEVk/fmtARJa1CC5cuIAzZ8602IQVs+iIq9vUOowrqYXZRCCGu0ZERODUqVPKmkuJobHTp09HVFSUsobMYVxJVUQiMOWdd94RicJscXNzM5SWlipHkTmMK6mJ2WsEovlqCTHllngMFlmGcSU1adXIQicnJ3z88ccN98Z///33chGaj4CLj49v2HajhYWFYfz48UpNHRhXUhW5XWAC75K7PhhXUhN+fUhEresaiJFuomkqmrJCbGws4uLi5OXmTVixvn7bjTZp0iS5qAnjSqoitwtMMG7CmirNm7BkGuNKamK2ayCm0bKEuIW2fqotMo9xJTUxmwhGjx4t3ysvntTbUhFN2tDQUN6b3gqMK6mJRUOMpaYp/vjjjxaHwoqHdPbt25efXK3EuJJaWJQIiMi68etDImIiICImAiKSMBEQERMBETEREBGA/wfYXOPqb4JdNQAAAABJRU5ErkJggg==;" vertex="1" parent="WIyWlLk6GJQsqaUBKTNV-1">
          <mxGeometry x="540.17" y="-34.61" width="159.66" height="75.5" as="geometry" />
        </mxCell>
        <mxCell id="BXsJe9mMuq3Z97-YSvnt-29" value="" style="shape=image;verticalLabelPosition=bottom;labelBackgroundColor=default;verticalAlign=top;aspect=fixed;imageAspect=0;image=data:image/png,iVBORw0KGgoAAAANSUhEUgAAACcAAAAhCAYAAABa+rIoAAAAAXNSR0IArs4c6QAAAARnQU1BAACxjwv8YQUAAAAJcEhZcwAADsMAAA7DAcdvqGQAAAOESURBVFhH7ZZZSJRRFMf/OjM644KiFGXLlObYixSJWmaWjktCgdVjuVARlUQ+VViBVLQSVKI9CK0WyVBgNRPl8iBlTVAIY7mAqUk+iIb7gLPc7r1zp6wZJ+eLyof5weWbe87H4X/POfd840comKP4i+ecxCdOKj5xUvGJk4pPnFT+yhdicnISExMT8PPzg0qlQlBQEP89HbvdDn9/z7n5I3EWiwX3q6vxzGDA18EhDI+OYowuZmew0E5RKqUKqiAVlFSs3WbD4NAQDhQfxOGSEu53hyRx7NSPHj5CxbVrkCsU2Jm/C4uXLEF4eDhfYWFhCA4OxtTUFE6UluJzdy8uXL5EM2qG2TyJvr4+nCw9jtTUVNyqviuiuoGJmy02m43o9XqSk5lJ1q9dR+7fu0esVqvwumdkZISkJCUTg94gLIRUVVWRGPUyEr1UTa5euSKsrnjMXFdXF1paWvCx9QPa29r4Yuyn5SgoLERgYCDf/47dRUVQq5chI1OLD6ZWXK+o4D3JYGUvr6zA5txcvp/OjOJOlZXhzq3bUMgVsFgdPcRITErCrsIC0Czy8rL+4U+6mM1ms9NqOH/b+AF1D2p4/7lDLpdDqVSiVv+UHkAtrA7cihsYGMCxI0dx7sJ5XDx7DrW1tcIze9K1GfQ2ytBQVycsrrCb/KKxAU1NTWg1mXD6zBnhceD2LutqahAdE43K8nI8efxYWL2Dlc1Zupkwm83Yt2cvQkNC0P6xXVh/4JK5np4e5GZnwzL1o5T/Ao1GA8OL52LnwCVzr5ubfxLGGjaf9tiGtDTEx8fP2DuzwZ/G2rZjO421AUnJyZgeqZsmhY2Y6biI+7UUeXl5qK+rh0wmQ9TiRVi4KEp4vCcjKwvv372nt1zJ56MmNlZ46ECnM7G3t1fsHMjF8zub0tP5DSN2wpt0bGKc36bltAc7Ozq5PSsnhw9ab+js6MD4+Djk9JCxcRq8fWOkU8CKjembMG/efCxYuAApKSnibQce59yrly9x6GAxtmzdik/dn+jYsKO//wvqGhuhoCf3BnbQovwCaLVaGqMfAQEBaKNz83lDPUJDQ8Vbv8DEeeLmjZskYdVqEhezguRmZROTySQ83qPT6UjimgSyksbKSNtIjEaj8LjHY+ac0E8URukHPSIiQlikwwbz8PAwIiMjhWVmZiXufzGn/2z6xEnFJ04qPnHSAL4BxjRqoefnzGUAAAAASUVORK5CYII=;" vertex="1" parent="WIyWlLk6GJQsqaUBKTNV-1">
          <mxGeometry x="540.1700000000001" y="-60" width="30" height="25.39" as="geometry" />
        </mxCell>
        <mxCell id="BXsJe9mMuq3Z97-YSvnt-30" value="" style="shape=image;verticalLabelPosition=bottom;labelBackgroundColor=default;verticalAlign=top;aspect=fixed;imageAspect=0;image=data:image/png,iVBORw0KGgoAAAANSUhEUgAAAEEAAAA3CAYAAABTjCeZAAAAAXNSR0IArs4c6QAAAARnQU1BAACxjwv8YQUAAAAJcEhZcwAADsMAAA7DAcdvqGQAAAN8SURBVGhD7Zq7Lz1BFMe/9xIUGgqJRoRGUBASjwIR4hEJkShEQSXx6FBoVGoiKGg8IvEPSOSSCB0JDYXbIBQq8UgIEcxvzub8Xn787s7enXExn2Sze86c2cl+d/bszOwGhATfnCDvvzVWBIkVQaKcEzo6OnB+fo5AIMCe2IUuraCgAOPj4+x5G2URMjMzcXp6iqamJvbELisrK6ioqMDW1hZ73oFEUCErK0v09fWxFds0NzeLyspKtt7H5gSJFUFiRZB8uAiHh4dYWlrC5OSksw+Hw1xiEM4NrvErMa6trYmioiIhX7X0dvq1kU3+UCjEkd6J6cQ4MjKCuro67O3tOe/yPyGb/PX19U6cCYyLMDExgdHR0X8u/jVUTnEUrxujItAga3h4OKIAP6E4ij87O2OPHoyKMD09jfv7e7bcQfFUTydGRVhdXeUjNbzWc4sxEahrHx8fs6XG0dGR60fIC0ZFeHl5YUsNr/XcYkyEYDCIjIwMttSgejqn7kZzQk1NDR+pUVtby0d6MCqCHGkiPj6eLXdQfG9vL1t6MCpCbm4uBgcH2XIHxVM9nRgVgaBRYGdnZ8RnnMopjuJ1Y1yEuLg4zM/PY3Z2Funp6ez9G/JTOcVRvG6U1xizs7PR0NCAqakp9njn8fERGxsb2N3dxdXVFVJSUlBcXIzq6mokJCRwlHdaWlpwfX2Nzc1N9rwDiaDCV1xj/JCeQE3S6PHg4MDZX1xc4OHhAYmJiUhNTXVWtPPy8pCTk+OML7wScz3h5uZGLC4uira2NpGWlkbCR9zk4yFaW1vF3NycuLy85DO5x21P0C5COBwW3d3dIjk5+c0LdbslJSWJ9vZ2sb29zWeOzIevLNFXqq6uLuTn5zuZ/vb2lku8QY/L8vIyysrK0NjY6OtapBYRZmZmnAHOwsICnp6e2OsP8sY5U+vCwsKIn9fc4rsIQ0ND6OnpgcwB7NED9YyBgQGnvWjxVYT9/X2MjY05d8sE1A61R2+ZaPBVhPX1de1z/9dQe6FQiC1v+CpCtMnPK3d3d3zkDS2J8bNhRZBYESRWBIkVQWJFkPg6ld7Z2YGc4LBljtLSUpSUlLD1G7uoIrE/bilgRZBYESSe/2jt7+9nT+xCydvNH63KIlRVVeHk5MTI94BoeX5+Rnl5ubMi9T+URfiK2JwgsSJIrAgSK4LEigDgBxiOp/Fcadq3AAAAAElFTkSuQmCC;" vertex="1" parent="WIyWlLk6GJQsqaUBKTNV-1">
          <mxGeometry x="660" y="-68.46000000000001" width="50" height="42.31" as="geometry" />
        </mxCell>
        <mxCell id="BXsJe9mMuq3Z97-YSvnt-43" value="" style="edgeStyle=orthogonalEdgeStyle;rounded=0;orthogonalLoop=1;jettySize=auto;html=1;fontSize=12;fontColor=#000000;endArrow=classic;endFill=1;entryX=0;entryY=0.75;entryDx=0;entryDy=0;" edge="1" parent="WIyWlLk6GJQsqaUBKTNV-1" source="BXsJe9mMuq3Z97-YSvnt-31" target="BXsJe9mMuq3Z97-YSvnt-37">
          <mxGeometry relative="1" as="geometry">
            <mxPoint x="763.2399999999998" y="60" as="targetPoint" />
            <Array as="points">
              <mxPoint x="755" y="63" />
            </Array>
          </mxGeometry>
        </mxCell>
        <mxCell id="BXsJe9mMuq3Z97-YSvnt-31" value="&lt;span&gt;Confirmar&lt;/span&gt;" style="text;html=1;strokeColor=none;fillColor=#000000;align=center;verticalAlign=middle;whiteSpace=wrap;rounded=0;labelBackgroundColor=none;labelBorderColor=none;fontSize=12;fontColor=#FFFFFF;strokeWidth=0;" vertex="1" parent="WIyWlLk6GJQsqaUBKTNV-1">
          <mxGeometry x="560" y="50" width="123.24" height="20" as="geometry" />
        </mxCell>
        <mxCell id="BXsJe9mMuq3Z97-YSvnt-47" style="edgeStyle=orthogonalEdgeStyle;rounded=0;orthogonalLoop=1;jettySize=auto;html=1;fontSize=12;fontColor=#000000;endArrow=classic;endFill=1;" edge="1" parent="WIyWlLk6GJQsqaUBKTNV-1" source="BXsJe9mMuq3Z97-YSvnt-32">
          <mxGeometry relative="1" as="geometry">
            <mxPoint x="390" y="110" as="targetPoint" />
            <Array as="points">
              <mxPoint x="622" y="160" />
              <mxPoint x="390" y="160" />
            </Array>
          </mxGeometry>
        </mxCell>
        <mxCell id="BXsJe9mMuq3Z97-YSvnt-32" value="Cancelar" style="text;html=1;strokeColor=none;fillColor=#000000;align=center;verticalAlign=middle;whiteSpace=wrap;rounded=0;labelBackgroundColor=none;labelBorderColor=none;fontSize=12;fontColor=#FFFFFF;strokeWidth=0;" vertex="1" parent="WIyWlLk6GJQsqaUBKTNV-1">
          <mxGeometry x="560" y="80" width="123.24" height="20" as="geometry" />
        </mxCell>
        <mxCell id="BXsJe9mMuq3Z97-YSvnt-48" style="edgeStyle=orthogonalEdgeStyle;rounded=0;orthogonalLoop=1;jettySize=auto;html=1;fontSize=12;fontColor=#000000;endArrow=none;endFill=0;" edge="1" parent="WIyWlLk6GJQsqaUBKTNV-1" source="BXsJe9mMuq3Z97-YSvnt-37">
          <mxGeometry relative="1" as="geometry">
            <mxPoint x="620" y="160" as="targetPoint" />
            <Array as="points">
              <mxPoint x="922" y="160" />
            </Array>
          </mxGeometry>
        </mxCell>
        <mxCell id="BXsJe9mMuq3Z97-YSvnt-37" value="" style="whiteSpace=wrap;html=1;aspect=fixed;fontSize=9;" vertex="1" parent="WIyWlLk6GJQsqaUBKTNV-1">
          <mxGeometry x="827" y="-80" width="190" height="190" as="geometry" />
        </mxCell>
        <mxCell id="BXsJe9mMuq3Z97-YSvnt-39" value="Veículo editado!" style="text;html=1;strokeColor=none;fillColor=none;align=center;verticalAlign=middle;whiteSpace=wrap;rounded=0;labelBackgroundColor=none;labelBorderColor=none;fontSize=12;fontColor=#000000;" vertex="1" parent="WIyWlLk6GJQsqaUBKTNV-1">
          <mxGeometry x="867" y="20" width="110" height="30" as="geometry" />
        </mxCell>
        <mxCell id="BXsJe9mMuq3Z97-YSvnt-40" value="" style="verticalLabelPosition=bottom;verticalAlign=top;html=1;shape=mxgraph.basic.tick;labelBackgroundColor=none;labelBorderColor=none;fontSize=12;strokeWidth=1;fillColor=#d5e8d4;gradientColor=#97d077;strokeColor=#82b366;" vertex="1" parent="WIyWlLk6GJQsqaUBKTNV-1">
          <mxGeometry x="892.8100000000001" y="-50" width="58.38" height="60" as="geometry" />
        </mxCell>
        <mxCell id="BXsJe9mMuq3Z97-YSvnt-41" value="Voltar" style="text;html=1;strokeColor=none;fillColor=#000000;align=center;verticalAlign=middle;whiteSpace=wrap;rounded=0;labelBackgroundColor=none;labelBorderColor=none;fontSize=12;fontColor=#FFFFFF;strokeWidth=0;" vertex="1" parent="WIyWlLk6GJQsqaUBKTNV-1">
          <mxGeometry x="860.38" y="80" width="123.24" height="20" as="geometry" />
        </mxCell>
        <mxCell id="BXsJe9mMuq3Z97-YSvnt-51" value="" style="whiteSpace=wrap;html=1;aspect=fixed;fontSize=9;" vertex="1" parent="WIyWlLk6GJQsqaUBKTNV-1">
          <mxGeometry x="210" y="330" width="190" height="190" as="geometry" />
        </mxCell>
        <mxCell id="BXsJe9mMuq3Z97-YSvnt-52" value="" style="shape=image;verticalLabelPosition=bottom;labelBackgroundColor=default;verticalAlign=top;aspect=fixed;imageAspect=0;image=data:image/png,iVBORw0KGgoAAAANSUhEUgAAACcAAAAhCAYAAABa+rIoAAAAAXNSR0IArs4c6QAAAARnQU1BAACxjwv8YQUAAAAJcEhZcwAADsMAAA7DAcdvqGQAAAOESURBVFhH7ZZZSJRRFMf/OjM644KiFGXLlObYixSJWmaWjktCgdVjuVARlUQ+VViBVLQSVKI9CK0WyVBgNRPl8iBlTVAIY7mAqUk+iIb7gLPc7r1zp6wZJ+eLyof5weWbe87H4X/POfd840comKP4i+ecxCdOKj5xUvGJk4pPnFT+yhdicnISExMT8PPzg0qlQlBQEP89HbvdDn9/z7n5I3EWiwX3q6vxzGDA18EhDI+OYowuZmew0E5RKqUKqiAVlFSs3WbD4NAQDhQfxOGSEu53hyRx7NSPHj5CxbVrkCsU2Jm/C4uXLEF4eDhfYWFhCA4OxtTUFE6UluJzdy8uXL5EM2qG2TyJvr4+nCw9jtTUVNyqviuiuoGJmy02m43o9XqSk5lJ1q9dR+7fu0esVqvwumdkZISkJCUTg94gLIRUVVWRGPUyEr1UTa5euSKsrnjMXFdXF1paWvCx9QPa29r4Yuyn5SgoLERgYCDf/47dRUVQq5chI1OLD6ZWXK+o4D3JYGUvr6zA5txcvp/OjOJOlZXhzq3bUMgVsFgdPcRITErCrsIC0Czy8rL+4U+6mM1ms9NqOH/b+AF1D2p4/7lDLpdDqVSiVv+UHkAtrA7cihsYGMCxI0dx7sJ5XDx7DrW1tcIze9K1GfQ2ytBQVycsrrCb/KKxAU1NTWg1mXD6zBnhceD2LutqahAdE43K8nI8efxYWL2Dlc1Zupkwm83Yt2cvQkNC0P6xXVh/4JK5np4e5GZnwzL1o5T/Ao1GA8OL52LnwCVzr5ubfxLGGjaf9tiGtDTEx8fP2DuzwZ/G2rZjO421AUnJyZgeqZsmhY2Y6biI+7UUeXl5qK+rh0wmQ9TiRVi4KEp4vCcjKwvv372nt1zJ56MmNlZ46ECnM7G3t1fsHMjF8zub0tP5DSN2wpt0bGKc36bltAc7Ozq5PSsnhw9ab+js6MD4+Djk9JCxcRq8fWOkU8CKjembMG/efCxYuAApKSnibQce59yrly9x6GAxtmzdik/dn+jYsKO//wvqGhuhoCf3BnbQovwCaLVaGqMfAQEBaKNz83lDPUJDQ8Vbv8DEeeLmjZskYdVqEhezguRmZROTySQ83qPT6UjimgSyksbKSNtIjEaj8LjHY+ac0E8URukHPSIiQlikwwbz8PAwIiMjhWVmZiXufzGn/2z6xEnFJ04qPnHSAL4BxjRqoefnzGUAAAAASUVORK5CYII=;" vertex="1" parent="WIyWlLk6GJQsqaUBKTNV-1">
          <mxGeometry x="220" y="350" width="30" height="25.39" as="geometry" />
        </mxCell>
        <mxCell id="BXsJe9mMuq3Z97-YSvnt-53" value="" style="shape=image;verticalLabelPosition=bottom;labelBackgroundColor=default;verticalAlign=top;aspect=fixed;imageAspect=0;image=data:image/png,iVBORw0KGgoAAAANSUhEUgAAAEEAAAA3CAYAAABTjCeZAAAAAXNSR0IArs4c6QAAAARnQU1BAACxjwv8YQUAAAAJcEhZcwAADsMAAA7DAcdvqGQAAAN8SURBVGhD7Zq7Lz1BFMe/9xIUGgqJRoRGUBASjwIR4hEJkShEQSXx6FBoVGoiKGg8IvEPSOSSCB0JDYXbIBQq8UgIEcxvzub8Xn787s7enXExn2Sze86c2cl+d/bszOwGhATfnCDvvzVWBIkVQaKcEzo6OnB+fo5AIMCe2IUuraCgAOPj4+x5G2URMjMzcXp6iqamJvbELisrK6ioqMDW1hZ73oFEUCErK0v09fWxFds0NzeLyspKtt7H5gSJFUFiRZB8uAiHh4dYWlrC5OSksw+Hw1xiEM4NrvErMa6trYmioiIhX7X0dvq1kU3+UCjEkd6J6cQ4MjKCuro67O3tOe/yPyGb/PX19U6cCYyLMDExgdHR0X8u/jVUTnEUrxujItAga3h4OKIAP6E4ij87O2OPHoyKMD09jfv7e7bcQfFUTydGRVhdXeUjNbzWc4sxEahrHx8fs6XG0dGR60fIC0ZFeHl5YUsNr/XcYkyEYDCIjIwMttSgejqn7kZzQk1NDR+pUVtby0d6MCqCHGkiPj6eLXdQfG9vL1t6MCpCbm4uBgcH2XIHxVM9nRgVgaBRYGdnZ8RnnMopjuJ1Y1yEuLg4zM/PY3Z2Funp6ez9G/JTOcVRvG6U1xizs7PR0NCAqakp9njn8fERGxsb2N3dxdXVFVJSUlBcXIzq6mokJCRwlHdaWlpwfX2Nzc1N9rwDiaDCV1xj/JCeQE3S6PHg4MDZX1xc4OHhAYmJiUhNTXVWtPPy8pCTk+OML7wScz3h5uZGLC4uira2NpGWlkbCR9zk4yFaW1vF3NycuLy85DO5x21P0C5COBwW3d3dIjk5+c0LdbslJSWJ9vZ2sb29zWeOzIevLNFXqq6uLuTn5zuZ/vb2lku8QY/L8vIyysrK0NjY6OtapBYRZmZmnAHOwsICnp6e2OsP8sY5U+vCwsKIn9fc4rsIQ0ND6OnpgcwB7NED9YyBgQGnvWjxVYT9/X2MjY05d8sE1A61R2+ZaPBVhPX1de1z/9dQe6FQiC1v+CpCtMnPK3d3d3zkDS2J8bNhRZBYESRWBIkVQWJFkPg6ld7Z2YGc4LBljtLSUpSUlLD1G7uoIrE/bilgRZBYESSe/2jt7+9nT+xCydvNH63KIlRVVeHk5MTI94BoeX5+Rnl5ubMi9T+URfiK2JwgsSJIrAgSK4LEigDgBxiOp/Fcadq3AAAAAElFTkSuQmCC;" vertex="1" parent="WIyWlLk6GJQsqaUBKTNV-1">
          <mxGeometry x="340" y="341.53999999999996" width="50" height="42.31" as="geometry" />
        </mxCell>
        <mxCell id="BXsJe9mMuq3Z97-YSvnt-54" value="" style="shape=image;verticalLabelPosition=bottom;labelBackgroundColor=default;verticalAlign=top;aspect=fixed;imageAspect=0;image=data:image/png,iVBORw0KGgoAAAANSUhEUgAAAJ4AAAA6CAYAAABBCOCDAAAAAXNSR0IArs4c6QAAAARnQU1BAACxjwv8YQUAAAAJcEhZcwAADsMAAA7DAcdvqGQAAAIjSURBVHhe7d29amJxEMbh2a20MAi5A60sBAXBLo2FhaiNta0i4jUkQixFxRvw+xLsFayt/LiKRBvtdleZIvDnuJwTyDS/BwZ5+xedORzw159/BPhhv/UT+FEUDyYoHkw4O95sNpPpdKoJ8KfRaEixWNTkzSneZDK5DxBEs9mUUqmkyRtXLUyw48EExYMJigcTzo7X6XTk/f1dE+BPt9uVWq2myZtTvNVqJev1WhPgTz6fl0wmo8kbVy1MsOPBBMWDCYoHExQPJigeTDhX7W63k/1+rwnwJ5VKSTwe1/TArXhfvb6+3orIMIFmOBxqkx5zvvFOp5Ocz2dNgD/RaFQikYgmbzxAhgmOC5igeDDh/NQul8v7AEFUKhV5eXnR5M0pXr/fl16vpwnw5+3tTarVqiZvHBcwwY4HExQPJigeTFA8mHCOi4+PD/n8/NQE+PP8/CxPT0+aHrgV7yteEmC+M4FfEjgcDnI8HjUB/iSTSYnFYpq88RwPJjguYILiwYTzU7vdbu8DBJHNZiWRSGh64Fa8r7hqme9M4Kv2crnI9XrVBPgTDoclFApp8sZVCxMcFzBB8WCC4sEExYMJigcTzlU7Ho9lNBppAvxptVpSLpc1eXOKt1gsZD6fawL8qdfrUigUNHnjOR5MsOPBBMWDCYoHE86O12637wMEMRgM7v9Z+z9O8TabzX2AIHK5nKTTaU3euGphgh0PJigeTFA8GBD5C3ZVGoT5KIt9AAAAAElFTkSuQmCC;" vertex="1" parent="WIyWlLk6GJQsqaUBKTNV-1">
          <mxGeometry x="260" y="401" width="103.52" height="38" as="geometry" />
        </mxCell>
        <mxCell id="BXsJe9mMuq3Z97-YSvnt-55" value="" style="ellipse;whiteSpace=wrap;html=1;aspect=fixed;fontSize=12;" vertex="1" parent="WIyWlLk6GJQsqaUBKTNV-1">
          <mxGeometry x="240" y="415" width="10" height="10" as="geometry" />
        </mxCell>
        <mxCell id="BXsJe9mMuq3Z97-YSvnt-66" value="" style="edgeStyle=orthogonalEdgeStyle;rounded=0;orthogonalLoop=1;jettySize=auto;html=1;fontSize=12;fontColor=#000000;endArrow=classic;endFill=1;entryX=0;entryY=0.75;entryDx=0;entryDy=0;" edge="1" parent="WIyWlLk6GJQsqaUBKTNV-1" source="BXsJe9mMuq3Z97-YSvnt-57" target="BXsJe9mMuq3Z97-YSvnt-67">
          <mxGeometry relative="1" as="geometry">
            <mxPoint x="443.2399999999998" y="470" as="targetPoint" />
            <Array as="points">
              <mxPoint x="420" y="473" />
              <mxPoint x="420" y="473" />
            </Array>
          </mxGeometry>
        </mxCell>
        <mxCell id="BXsJe9mMuq3Z97-YSvnt-57" value="Excluir veículo" style="text;html=1;strokeColor=none;fillColor=#000000;align=center;verticalAlign=middle;whiteSpace=wrap;rounded=0;labelBackgroundColor=none;labelBorderColor=none;fontSize=12;fontColor=#FFFFFF;strokeWidth=0;" vertex="1" parent="WIyWlLk6GJQsqaUBKTNV-1">
          <mxGeometry x="240" y="460" width="123.24" height="20" as="geometry" />
        </mxCell>
        <mxCell id="BXsJe9mMuq3Z97-YSvnt-64" value="" style="edgeStyle=orthogonalEdgeStyle;rounded=0;orthogonalLoop=1;jettySize=auto;html=1;fontSize=12;fontColor=#000000;endArrow=classic;endFill=1;entryX=0.004;entryY=0.923;entryDx=0;entryDy=0;entryPerimeter=0;" edge="1" parent="WIyWlLk6GJQsqaUBKTNV-1" source="BXsJe9mMuq3Z97-YSvnt-59" target="BXsJe9mMuq3Z97-YSvnt-2">
          <mxGeometry relative="1" as="geometry">
            <mxPoint x="157.18000000000006" y="410" as="targetPoint" />
            <Array as="points">
              <mxPoint x="150" y="500" />
              <mxPoint x="150" y="95" />
            </Array>
          </mxGeometry>
        </mxCell>
        <mxCell id="BXsJe9mMuq3Z97-YSvnt-59" value="Cancelar" style="text;html=1;strokeColor=none;fillColor=#000000;align=center;verticalAlign=middle;whiteSpace=wrap;rounded=0;labelBackgroundColor=none;labelBorderColor=none;fontSize=12;fontColor=#FFFFFF;strokeWidth=0;" vertex="1" parent="WIyWlLk6GJQsqaUBKTNV-1">
          <mxGeometry x="240.28" y="490" width="123.24" height="20" as="geometry" />
        </mxCell>
        <mxCell id="BXsJe9mMuq3Z97-YSvnt-73" style="edgeStyle=orthogonalEdgeStyle;rounded=0;orthogonalLoop=1;jettySize=auto;html=1;entryX=0.75;entryY=1;entryDx=0;entryDy=0;fontSize=12;fontColor=#000000;endArrow=classic;endFill=1;" edge="1" parent="WIyWlLk6GJQsqaUBKTNV-1" source="BXsJe9mMuq3Z97-YSvnt-67" target="BXsJe9mMuq3Z97-YSvnt-2">
          <mxGeometry relative="1" as="geometry">
            <Array as="points">
              <mxPoint x="625" y="250" />
              <mxPoint x="352" y="250" />
            </Array>
          </mxGeometry>
        </mxCell>
        <mxCell id="BXsJe9mMuq3Z97-YSvnt-67" value="" style="whiteSpace=wrap;html=1;aspect=fixed;fontSize=9;" vertex="1" parent="WIyWlLk6GJQsqaUBKTNV-1">
          <mxGeometry x="530" y="330" width="190" height="190" as="geometry" />
        </mxCell>
        <mxCell id="BXsJe9mMuq3Z97-YSvnt-68" value="Veículo excluído!" style="text;html=1;strokeColor=none;fillColor=none;align=center;verticalAlign=middle;whiteSpace=wrap;rounded=0;labelBackgroundColor=none;labelBorderColor=none;fontSize=12;fontColor=#000000;" vertex="1" parent="WIyWlLk6GJQsqaUBKTNV-1">
          <mxGeometry x="570" y="430" width="110" height="30" as="geometry" />
        </mxCell>
        <mxCell id="BXsJe9mMuq3Z97-YSvnt-69" value="" style="verticalLabelPosition=bottom;verticalAlign=top;html=1;shape=mxgraph.basic.tick;labelBackgroundColor=none;labelBorderColor=none;fontSize=12;strokeWidth=1;fillColor=#d5e8d4;gradientColor=#97d077;strokeColor=#82b366;" vertex="1" parent="WIyWlLk6GJQsqaUBKTNV-1">
          <mxGeometry x="595.8100000000001" y="360" width="58.38" height="60" as="geometry" />
        </mxCell>
        <mxCell id="BXsJe9mMuq3Z97-YSvnt-70" value="Voltar" style="text;html=1;strokeColor=none;fillColor=#000000;align=center;verticalAlign=middle;whiteSpace=wrap;rounded=0;labelBackgroundColor=none;labelBorderColor=none;fontSize=12;fontColor=#FFFFFF;strokeWidth=0;" vertex="1" parent="WIyWlLk6GJQsqaUBKTNV-1">
          <mxGeometry x="563.38" y="490" width="123.24" height="20" as="geometry" />
        </mxCell>
      </root>
    </mxGraphModel>
  </diagram>
</mxfile>
